<svg id="Layer_1" data-name="Layer 1" xmlns="http://www.w3.org/2000/svg" viewBox="0 0 20.94 20.94"><path d="M20.23,18,18.7,16.46c-.56-.54-1.1-1.1-1.5-1.53s-.66-.71-.66-.71l-3.07-1.47a7.71,7.71,0,1,0-.72.72l1.47,3.08s.3.24.71.65,1,.94,1.52,1.5L18,20.23c.39.43.66.71.66.71l2.33-2.33Zm-10.6-6.9L9.09,9.6h-3l-.56,1.45H3.26L6.45,2.77H8.81l3.11,8.28Z"/><path d="M20.23,18,18.7,16.46c-.56-.54-1.1-1.1-1.5-1.53s-.66-.71-.66-.71l-3.07-1.47a7.71,7.71,0,1,0-.72.72l1.47,3.08s.3.24.71.65,1,.94,1.52,1.5L18,20.23c.39.43.66.71.66.71l2.33-2.33Zm-10.6-6.9L9.09,9.6h-3l-.56,1.45H3.26L6.45,2.77H8.81l3.11,8.28Z" fill="#ff0030"/><polygon points="6.72 7.95 8.51 7.95 7.62 5.32 6.72 7.95"/><polygon points="6.72 7.95 8.51 7.95 7.62 5.32 6.72 7.95" fill="#ff0030"/></svg>